<svg xmlns="http://www.w3.org/2000/svg" version="1.0" width="1600.000000pt" height="1600.000000pt" viewBox="0 0 1600.000000 1600.000000" preserveAspectRatio="xMidYMid meet">

<g transform="translate(0.000000,1600.000000) scale(0.100000,-0.100000)" fill="#ffffff" stroke="none">
<path d="M5085 13993 c-809 -70 -1503 -383 -2069 -933 -554 -540 -874 -1173 -993 -1970 -16 -106 -18 -333 -21 -3000 -2 -2090 0 -2924 8 -3025 53 -655 292 -1266 704 -1794 107 -138 332 -370 476 -490 530 -445 1166 -708 1860 -771 159 -14 5741 -14 5900 0 812 74 1537 419 2105 1001 512 525 814 1151 922 1909 17 118 18 301 18 3080 0 3262 5 3002 -61 3330 -170 856 -691 1628 -1424 2114 -435 289 -863 449 -1420 533 -107 16 -321 17 -3040 19 -1609 0 -2943 -1 -2965 -3z m7125 -1362 c195 -67 352 -223 422 -421 20 -56 23 -84 23 -210 0 -126 -3 -154 -23 -210 -70 -196 -226 -352 -422 -422 -56 -20 -84 -23 -210 -23 -126 0 -154 3 -210 23 -196 70 -355 229 -421 422 -30 89 -38 267 -15 365 55 234 248 431 481 489 91 23 290 16 375 -13z m-3729 -1335 c1076 -161 1991 -816 2483 -1776 180 -352 287 -696 343 -1110 22 -165 25 -629 5 -780 -80 -602 -262 -1082 -589 -1547 -506 -721 -1306 -1227 -2163 -1367 -227 -37 -281 -41 -560 -41 -280 0 -357 6 -565 42 -1286 221 -2335 1186 -2660 2448 -76 296 -100 495 -100 835 0 340 24 539 100 835 280 1086 1093 1961 2159 2322 257 87 496 135 821 167 22 2 157 3 300 1 214 -3 289 -8 426 -29z" fill="#ffffff"/>
<path d="M7770 9989 c-843 -96 -1539 -725 -1723 -1559 -239 -1076 445 -2144 1525 -2384 597 -132 1240 24 1703 414 163 137 288 278 398 445 541 828 400 1915 -335 2581 -255 232 -556 387 -918 472 -153 37 -468 51 -650 31z" fill="#ffffff"/>
</g>
</svg>