<svg width="331" height="49" viewBox="0 0 331 49" fill="none" xmlns="http://www.w3.org/2000/svg">
<circle opacity="0.3" cx="13" cy="36" r="13" fill="#6038F2"/>
<circle cx="13" cy="36" r="6" fill="#6038F2"/>
<path d="M31.3333 22.5C31.3333 23.9728 32.5272 25.1667 34 25.1667C35.4728 25.1667 36.6667 23.9728 36.6667 22.5C36.6667 21.0272 35.4728 19.8333 34 19.8333C32.5272 19.8333 31.3333 21.0272 31.3333 22.5ZM133.5 8.19166L133.362 8.67218L133.5 8.19166ZM34.4022 22.7971C34.7934 22.2674 35.2067 21.7343 35.6428 21.1994L34.8678 20.5675C34.4215 21.1148 33.9984 21.6605 33.5978 22.2029L34.4022 22.7971ZM38.3469 18.1806C39.2606 17.2497 40.2484 16.324 41.3145 15.4131L40.665 14.6528C39.5763 15.5829 38.5672 16.5286 37.6333 17.4801L38.3469 18.1806ZM44.5105 12.9072C45.5775 12.1398 46.708 11.3905 47.9051 10.6659L47.3872 9.81043C46.1675 10.5488 45.0149 11.3126 43.9266 12.0954L44.5105 12.9072ZM51.4556 8.69528C52.6293 8.09929 53.8576 7.52736 55.1426 6.98401L54.7531 6.06297C53.4468 6.61533 52.1974 7.19706 51.0028 7.80364L51.4556 8.69528ZM58.9456 5.52167C60.1921 5.08786 61.4854 4.6803 62.8272 4.30223L62.556 3.33971C61.1951 3.72317 59.8826 4.13675 58.6169 4.57724L58.9456 5.52167ZM66.7757 3.30917C68.0711 3.02099 69.4071 2.75934 70.785 2.52661L70.6184 1.54058C69.2239 1.77612 67.8709 2.04106 66.5585 2.33303L66.7757 3.30917ZM74.8241 1.9439C76.1402 1.78537 77.4912 1.65226 78.8779 1.54632L78.8017 0.549228C77.4008 0.656255 76.0353 0.790781 74.7045 0.951077L74.8241 1.9439ZM82.9505 1.31865C84.2805 1.27076 85.641 1.24697 87.0325 1.24861L87.0337 0.248616C85.63 0.246957 84.2571 0.270958 82.9145 0.319297L82.9505 1.31865ZM91.1167 1.32452C92.4504 1.37193 93.8108 1.4419 95.1984 1.53547L95.2657 0.53774C93.8677 0.443467 92.4967 0.372946 91.1523 0.325151L91.1167 1.32452ZM99.2745 1.87155C100.607 2.00098 101.963 2.15148 103.344 2.32386L103.467 1.33156C102.078 1.15807 100.713 1.00656 99.3712 0.876231L99.2745 1.87155ZM107.406 2.88459C108.729 3.08429 110.073 3.30349 111.438 3.54284L111.611 2.55786C110.238 2.31716 108.886 2.09669 107.555 1.89579L107.406 2.88459ZM115.448 4.29219C116.763 4.55285 118.097 4.83169 119.45 5.12923L119.665 4.15257C118.305 3.85357 116.965 3.57331 115.643 3.31127L115.448 4.29219ZM123.448 6.04984C124.759 6.36516 126.087 6.69758 127.432 7.04753L127.684 6.07973C126.333 5.72825 124.998 5.39435 123.681 5.07757L123.448 6.04984ZM131.365 8.10699C132.027 8.29123 132.692 8.47962 133.362 8.67218L133.638 7.71113C132.966 7.5178 132.298 7.32866 131.633 7.14366L131.365 8.10699ZM133.362 8.67218C134.037 8.86636 134.706 9.05918 135.369 9.25065L135.647 8.28991C134.983 8.09833 134.314 7.90542 133.638 7.71113L133.362 8.67218ZM139.276 10.3834C140.616 10.7737 141.93 11.1582 143.219 11.5371L143.501 10.5777C142.211 10.1986 140.896 9.81382 139.555 9.42327L139.276 10.3834ZM147.093 12.681C148.438 13.0801 149.754 13.4727 151.041 13.8589L151.328 12.901C150.04 12.5145 148.723 12.1217 147.378 11.7224L147.093 12.681ZM154.952 15.0387C156.273 15.4396 157.563 15.8334 158.822 16.2203L159.116 15.2644C157.855 14.8771 156.565 14.483 155.243 14.0818L154.952 15.0387ZM162.746 17.4342C164.085 17.8513 165.387 18.2601 166.654 18.6608L166.955 17.7074C165.687 17.3062 164.384 16.897 163.043 16.4795L162.746 17.4342ZM170.54 19.9001C171.872 20.3285 173.162 20.7474 174.413 21.1572L174.724 20.2069C173.471 19.7966 172.179 19.3771 170.846 18.9481L170.54 19.9001ZM178.279 22.4372C179.615 22.8841 180.903 23.3197 182.144 23.7446L182.468 22.7985C181.224 22.3728 179.935 21.9365 178.597 21.4889L178.279 22.4372ZM186.004 25.0832C187.344 25.554 188.626 26.0111 189.854 26.4556L190.195 25.5153C188.963 25.0697 187.678 24.6115 186.336 24.1397L186.004 25.0832ZM193.683 27.8632C195.01 28.3596 196.271 28.8399 197.473 29.3057L197.834 28.3733C196.629 27.906 195.364 27.4244 194.033 26.9265L193.683 27.8632ZM201.283 30.8118C202.606 31.3453 203.855 31.86 205.045 32.3592L205.432 31.4371C204.238 30.9362 202.985 30.4197 201.657 29.8844L201.283 30.8118ZM208.788 33.9592C210.085 34.5232 211.321 35.0697 212.523 35.6045L212.93 34.6909C211.726 34.1554 210.487 33.6076 209.187 33.0422L208.788 33.9592ZM216.254 37.269C217.496 37.8224 218.732 38.3692 219.994 38.9158L220.391 37.9983C219.134 37.4536 217.902 36.9083 216.66 36.3555L216.254 37.269ZM223.759 40.5098C224.972 41.0094 226.23 41.5141 227.559 42.0289L227.92 41.0964C226.598 40.5844 225.347 40.0823 224.141 39.5853L223.759 40.5098ZM231.396 43.4691C232.025 43.6977 232.67 43.9289 233.334 44.1632L233.666 43.2202C233.006 42.987 232.363 42.7568 231.738 42.5293L231.396 43.4691ZM233.334 44.1632C233.971 44.3883 234.626 44.6036 235.296 44.8092L235.589 43.8532C234.932 43.6514 234.29 43.4405 233.666 43.2202L233.334 44.1632ZM239.295 45.883C240.603 46.1888 241.956 46.465 243.349 46.713L243.524 45.7285C242.148 45.4834 240.812 45.2107 239.523 44.9092L239.295 45.883ZM247.438 47.3466C248.775 47.525 250.142 47.6809 251.533 47.8152L251.629 46.8199C250.249 46.6866 248.895 46.5321 247.57 46.3554L247.438 47.3466ZM255.646 48.1461C257.003 48.2345 258.379 48.3044 259.769 48.3566L259.807 47.3574C258.425 47.3054 257.059 47.236 255.711 47.1483L255.646 48.1461ZM263.891 48.4603C265.254 48.4782 266.628 48.4805 268.01 48.4679L268.001 47.4679C266.627 47.4804 265.26 47.4782 263.904 47.4604L263.891 48.4603ZM272.13 48.3876C273.499 48.3471 274.872 48.2929 276.247 48.2256L276.199 47.2268C274.83 47.2938 273.463 47.3477 272.1 47.3881L272.13 48.3876ZM280.36 47.9865C281.732 47.8943 283.102 47.7898 284.467 47.6737L284.382 46.6773C283.023 46.7929 281.659 46.897 280.293 46.9888L280.36 47.9865ZM288.569 47.2891C289.943 47.1482 291.309 46.9961 292.664 46.8334L292.545 45.8405C291.195 46.0025 289.835 46.154 288.467 46.2943L288.569 47.2891ZM296.751 46.3065C298.126 46.1171 299.485 45.9171 300.826 45.7073L300.672 44.7193C299.337 44.9281 297.983 45.1273 296.615 45.3159L296.751 46.3065ZM304.885 45.033C306.263 44.7903 307.617 44.5375 308.942 44.2755L308.748 43.2945C307.43 43.5551 306.083 43.8066 304.711 44.0482L304.885 45.033ZM312.979 43.4292C314.353 43.1241 315.688 42.8091 316.98 42.4855L316.737 41.5155C315.455 41.8368 314.128 42.1497 312.763 42.453L312.979 43.4292ZM320.982 41.4141C322.365 41.0183 323.681 40.6123 324.922 40.198L324.605 39.2495C323.379 39.6587 322.077 40.0604 320.707 40.4527L320.982 41.4141ZM328.803 38.7756C329.472 38.5045 330.108 38.2307 330.709 37.9545L330.291 37.0458C329.705 37.315 329.083 37.5828 328.427 37.8488L328.803 38.7756Z" fill="#6038F2"/>
</svg>
