<svg width="314" height="55" viewBox="0 0 314 55" fill="none" xmlns="http://www.w3.org/2000/svg">
<circle opacity="0.3" cx="13" cy="42" r="13" fill="#6038F2"/>
<circle cx="13" cy="42" r="6" fill="#6038F2"/>
<path d="M32.3333 40.7203C32.3333 42.1931 33.5272 43.387 35 43.387C36.4728 43.387 37.6667 42.1931 37.6667 40.7203C37.6667 39.2476 36.4728 38.0537 35 38.0537C33.5272 38.0537 32.3333 39.2476 32.3333 40.7203ZM138 9.2202L137.707 8.81509L138 9.2202ZM221.5 24.7205L221.747 24.286L221.5 24.7205ZM307.833 40.7203C307.833 42.1931 309.027 43.387 310.5 43.387C311.973 43.387 313.167 42.1931 313.167 40.7203C313.167 39.2476 311.973 38.0537 310.5 38.0537C309.027 38.0537 307.833 39.2476 307.833 40.7203ZM34.9952 41.2203C35.6385 41.2265 36.2869 41.2263 36.9402 41.2198L36.9303 40.2199C36.2834 40.2263 35.6414 40.2265 35.0048 40.2204L34.9952 41.2203ZM40.8505 41.11C42.1365 41.0514 43.4383 40.9709 44.7537 40.8696L44.6769 39.8726C43.3714 39.9731 42.0801 40.0529 40.805 40.111L40.8505 41.11ZM48.6455 40.5141C49.927 40.3792 51.2191 40.2263 52.5201 40.0561L52.3904 39.0646C51.0974 39.2337 49.8136 39.3856 48.5409 39.5196L48.6455 40.5141ZM56.3826 39.5051C57.6595 39.3082 58.9432 39.0959 60.2319 38.8691L60.0586 37.8843C58.7766 38.1098 57.4999 38.3209 56.2302 38.5168L56.3826 39.5051ZM64.0671 38.155C65.3379 37.9056 66.6119 37.6431 67.8878 37.3683L67.6772 36.3907C66.4072 36.6643 65.1391 36.9256 63.8746 37.1737L64.0671 38.155ZM71.6935 36.5136C72.9572 36.2184 74.2211 35.9119 75.4839 35.5948L75.2403 34.6249C73.9828 34.9407 72.7242 35.2459 71.466 35.5399L71.6935 36.5136ZM79.2587 34.615C80.5148 34.2784 81.7683 33.932 83.0176 33.5766L82.7439 32.6147C81.4995 32.9688 80.251 33.3138 78.9998 33.6491L79.2587 34.615ZM86.7602 32.4815C88.0084 32.1062 89.2509 31.7225 90.4861 31.3312L90.1842 30.3779C88.9536 30.7677 87.7157 31.15 86.4723 31.5239L86.7602 32.4815ZM94.1948 30.1265C95.4347 29.7138 96.6655 29.294 97.8856 28.8679L97.5559 27.9238C96.3404 28.3483 95.1142 28.7665 93.879 29.1777L94.1948 30.1265ZM101.557 27.5551C102.788 27.1048 104.006 26.6486 105.209 26.1876L104.851 25.2538C103.653 25.713 102.44 26.1674 101.214 26.616L101.557 27.5551ZM108.839 24.7641C110.059 24.2744 111.261 23.7803 112.444 23.2829L112.056 22.3611C110.878 22.8564 109.681 23.3484 108.466 23.8361L108.839 24.7641ZM116.02 21.7413C117.233 21.2059 118.42 20.6679 119.58 20.1284L119.159 19.2216C118.004 19.7583 116.823 20.2937 115.616 20.8265L116.02 21.7413ZM123.106 18.4436C124.302 17.8559 125.464 17.2677 126.587 16.6808L126.124 15.7944C125.008 16.3774 123.854 16.9618 122.665 17.5461L123.106 18.4436ZM130.016 14.8274C131.2 14.1645 132.331 13.5049 133.405 12.851L132.884 11.9969C131.822 12.644 130.702 13.2974 129.528 13.955L130.016 14.8274ZM136.694 10.7437C137.248 10.3681 137.782 9.99515 138.293 9.62531L137.707 8.81509C137.205 9.17843 136.68 9.54542 136.133 9.91558L136.694 10.7437ZM138.293 9.62531C138.854 9.21977 139.414 8.8307 139.974 8.45782L139.419 7.62554C138.848 8.00574 138.278 8.40217 137.707 8.81509L138.293 9.62531ZM143.453 6.345C144.667 5.679 145.882 5.08634 147.099 4.56419L146.705 3.64515C145.457 4.1804 144.214 4.78728 142.972 5.46829L143.453 6.345ZM150.912 3.16005C152.216 2.75711 153.527 2.43052 154.847 2.17704L154.659 1.19499C153.303 1.45537 151.956 1.79082 150.616 2.20457L150.912 3.16005ZM158.867 1.63018C160.207 1.52073 161.56 1.4811 162.927 1.50826L162.947 0.508455C161.547 0.480649 160.161 0.521192 158.785 0.633497L158.867 1.63018ZM166.986 1.77704C168.311 1.9239 169.652 2.12808 171.01 2.38706L171.197 1.40475C169.815 1.14122 168.448 0.933027 167.096 0.78313L166.986 1.77704ZM174.993 3.28719C176.283 3.62234 177.59 4.00224 178.916 4.42486L179.22 3.4721C177.878 3.0444 176.553 2.65937 175.244 2.31931L174.993 3.28719ZM182.785 5.75766C184.039 6.2201 185.309 6.71696 186.598 7.24663L186.978 6.32168C185.679 5.78777 184.397 5.28644 183.131 4.81945L182.785 5.75766ZM190.373 8.8662C191.595 9.41154 192.834 9.98341 194.09 10.5805L194.52 9.67732C193.257 9.0771 192.011 8.50186 190.78 7.95297L190.373 8.8662ZM197.779 12.3795C198.985 12.9812 200.206 13.6036 201.444 14.2459L201.904 13.3582C200.662 12.7138 199.436 12.089 198.226 11.4849L197.779 12.3795ZM205.081 16.1622C206.268 16.797 207.472 17.4482 208.691 18.1148L209.171 17.2373C207.949 16.5694 206.743 15.9167 205.552 15.2803L205.081 16.1622ZM212.288 20.0992C213.469 20.7558 214.664 21.4254 215.875 22.1073L216.366 21.2359C215.153 20.5533 213.956 19.8828 212.774 19.2253L212.288 20.0992ZM219.454 24.132C220.05 24.4704 220.649 24.8114 221.253 25.155L221.747 24.286C221.144 23.9423 220.544 23.6011 219.948 23.2625L219.454 24.132ZM221.253 25.155C221.864 25.5035 222.478 25.8438 223.094 26.1759L223.569 25.2959C222.96 24.9674 222.353 24.6308 221.747 24.286L221.253 25.155ZM226.828 28.0851C228.095 28.6976 229.367 29.2781 230.643 29.8282L231.039 28.91C229.776 28.3654 228.517 27.7909 227.264 27.1848L226.828 28.0851ZM234.528 31.4076C235.841 31.9103 237.157 32.3828 238.473 32.8269L238.792 31.8794C237.489 31.4395 236.186 30.9715 234.885 30.4737L234.528 31.4076ZM242.469 34.0905C243.819 34.4891 245.166 34.8596 246.51 35.204L246.758 34.2353C245.426 33.8938 244.09 33.5265 242.753 33.1315L242.469 34.0905ZM250.586 36.1732C251.96 36.4754 253.329 36.752 254.69 37.0049L254.873 36.0217C253.522 35.7707 252.164 35.4963 250.8 35.1965L250.586 36.1732ZM258.817 37.7059C260.211 37.921 261.594 38.1129 262.963 38.284L263.087 37.2917C261.727 37.1217 260.353 36.9311 258.97 36.7176L258.817 37.7059ZM267.129 38.7471C268.538 38.885 269.931 39.0024 271.303 39.1023L271.375 38.1049C270.011 38.0056 268.627 37.8889 267.226 37.7519L267.129 38.7471ZM275.48 39.3578C276.898 39.4287 278.29 39.4827 279.653 39.5231L279.682 38.5235C278.326 38.4833 276.941 38.4296 275.53 38.3591L275.48 39.3578ZM283.839 39.609C285.276 39.6262 286.673 39.6309 288.024 39.6277L288.021 38.6277C286.674 38.6309 285.283 38.6262 283.851 38.6091L283.839 39.609ZM292.195 39.5957C293.658 39.5781 295.054 39.5562 296.373 39.5372L296.358 38.5373C295.038 38.5563 293.645 38.5782 292.183 38.5957L292.195 39.5957ZM300.546 39.4943C302.089 39.49 303.473 39.5059 304.683 39.5597L304.728 38.5607C303.495 38.5059 302.093 38.4899 300.544 38.4943L300.546 39.4943ZM308.699 40.0605C309.569 40.3119 309.926 40.6197 310.033 40.8989L310.967 40.5418C310.681 39.7941 309.904 39.3678 308.977 39.0998L308.699 40.0605Z" fill="#6038F2"/>
</svg>
