<svg width="306" height="60" viewBox="0 0 306 60" fill="none" xmlns="http://www.w3.org/2000/svg">
<circle opacity="0.3" cx="13" cy="47" r="13" fill="#6038F2"/>
<circle cx="13" cy="47" r="6" fill="#6038F2"/>
<path d="M115 3.09931L114.898 3.5889L115 3.09931ZM300.333 44C300.333 45.4728 301.527 46.6667 303 46.6667C304.473 46.6667 305.667 45.4728 305.667 44C305.667 42.5272 304.473 41.3333 303 41.3333C301.527 41.3333 300.333 42.5272 300.333 44ZM32.4486 34.8202C32.7348 34.2388 33.0364 33.6598 33.3531 33.0836L32.4768 32.6019C32.1529 33.1911 31.8444 33.7835 31.5514 34.3785L32.4486 34.8202ZM35.3871 29.7331C36.1025 28.6587 36.8714 27.598 37.692 26.5541L36.9059 25.936C36.0693 27.0001 35.2851 28.0821 34.5548 29.1788L35.3871 29.7331ZM40.2333 23.5577C41.1045 22.603 42.0209 21.6663 42.9808 20.7503L42.2905 20.0268C41.3141 20.9584 40.3817 21.9116 39.4946 22.8836L40.2333 23.5577ZM45.9169 18.1287C46.9099 17.2985 47.9412 16.4894 49.0095 15.704L48.4172 14.8983C47.3322 15.6959 46.2846 16.5178 45.2754 17.3615L45.9169 18.1287ZM52.2515 13.468C53.3404 12.7639 54.462 12.0835 55.6153 11.4288L55.1217 10.5592C53.9517 11.2233 52.8137 11.9137 51.7085 12.6283L52.2515 13.468ZM59.0928 9.58189C60.2572 9.00434 61.4498 8.4523 62.6696 7.92761L62.2745 7.00898C61.0381 7.54079 59.8291 8.10042 58.6484 8.68604L59.0928 9.58189ZM66.3242 6.46899C67.5439 6.0189 68.7878 5.59557 70.055 5.2006L69.7575 4.2459C68.4739 4.64595 67.2138 5.0748 65.978 5.53083L66.3242 6.46899ZM73.8493 4.12213C75.107 3.79839 76.3855 3.50214 77.684 3.23479L77.4823 2.25533C76.1679 2.52596 74.8736 2.82589 73.6 3.1537L73.8493 4.12213ZM81.5608 2.53303C82.8461 2.33183 84.1492 2.1586 85.4695 2.01461L85.3611 1.0205C84.0253 1.16618 82.7068 1.34145 81.4061 1.54506L81.5608 2.53303ZM89.4006 1.67665C90.6992 1.59462 92.0132 1.54063 93.3418 1.51579L93.3231 0.515968C91.9797 0.541085 90.651 0.595676 89.3376 0.678638L89.4006 1.67665ZM97.2821 1.52759C98.5819 1.55943 99.8947 1.619 101.22 1.7073L101.287 0.709508C99.9473 0.620288 98.6204 0.560071 97.3065 0.52789L97.2821 1.52759ZM105.149 2.05015C106.442 2.18957 107.746 2.35625 109.061 2.55104L109.208 1.56183C107.88 1.36511 106.562 1.19675 105.256 1.05591L105.149 2.05015ZM112.953 3.20456C113.599 3.32586 114.248 3.45394 114.898 3.5889L115.102 2.60972C114.444 2.47349 113.79 2.34418 113.137 2.22172L112.953 3.20456ZM114.898 3.5889C115.608 3.73609 116.304 3.88386 116.984 4.03224L117.197 3.05518C116.513 2.90605 115.815 2.75758 115.102 2.60972L114.898 3.5889ZM121.067 4.97063C122.481 5.31398 123.826 5.66075 125.105 6.01127L125.369 5.04683C124.08 4.69354 122.726 4.34433 121.303 3.99884L121.067 4.97063ZM129.145 7.19783C130.547 7.63979 131.858 8.08786 133.086 8.54261L133.433 7.6048C132.188 7.14392 130.862 6.69059 129.446 6.24412L129.145 7.19783ZM136.965 10.1173C138.319 10.7221 139.555 11.339 140.69 11.969L141.175 11.0945C140.013 10.4496 138.751 9.81993 137.372 9.20418L136.965 10.1173ZM144.199 14.1666C145.387 15.0083 146.45 15.8749 147.428 16.7692L148.103 16.0315C147.096 15.11 146 14.2172 144.777 13.3506L144.199 14.1666ZM150.318 19.7412C151.228 20.7818 152.087 21.8609 152.945 22.9846L153.739 22.378C152.874 21.2443 152.001 20.1462 151.071 19.0829L150.318 19.7412ZM155.454 26.3476C156.258 27.4308 157.099 28.5521 158.01 29.7118L158.796 29.094C157.894 27.9452 157.06 26.8326 156.257 25.7515L155.454 26.3476ZM160.696 32.9721C161.574 33.9845 162.521 35.0238 163.556 36.0916L164.274 35.3954C163.252 34.3418 162.318 33.3162 161.451 32.3169L160.696 32.9721ZM166.59 39.0519C167.098 39.5211 167.624 39.9955 168.17 40.475L168.83 39.7236C168.29 39.2497 167.77 38.781 167.269 38.3176L166.59 39.0519ZM168.17 40.475C168.669 40.9128 169.205 41.3337 169.777 41.7384L170.355 40.922C169.809 40.5358 169.3 40.1364 168.83 39.7236L168.17 40.475ZM173.309 43.8238C174.465 44.399 175.711 44.934 177.037 45.4312L177.388 44.4948C176.089 44.008 174.876 43.4864 173.755 42.9285L173.309 43.8238ZM180.891 46.7073C182.145 47.0744 183.454 47.4157 184.812 47.7325L185.04 46.7587C183.698 46.4456 182.407 46.1089 181.172 45.7475L180.891 46.7073ZM188.773 48.5628C190.066 48.8058 191.395 49.0304 192.757 49.2373L192.907 48.2486C191.556 48.0433 190.238 47.8207 188.957 47.58L188.773 48.5628ZM196.759 49.7841C198.073 49.9448 199.412 50.0912 200.774 50.2238L200.871 49.2285C199.517 49.0966 198.186 48.9512 196.88 48.7915L196.759 49.7841ZM204.798 50.5719C206.125 50.6729 207.47 50.7622 208.83 50.8403L208.888 49.8419C207.533 49.7641 206.195 49.6753 204.874 49.5748L204.798 50.5719ZM212.854 51.0378C214.184 51.0924 215.526 51.1372 216.878 51.1728L216.904 50.1732C215.557 50.1377 214.22 50.093 212.895 50.0386L212.854 51.0378ZM220.907 51.2518C222.245 51.2693 223.59 51.2784 224.94 51.2797L224.941 50.2797C223.595 50.2784 222.254 50.2693 220.92 50.2519L220.907 51.2518ZM228.973 51.2606C230.312 51.2468 231.655 51.2259 232.999 51.1982L232.978 50.1984C231.637 50.226 230.298 50.2469 228.963 50.2606L228.973 51.2606ZM237.027 51.0954C238.37 51.0547 239.713 51.0077 241.054 50.9548L241.015 49.9556C239.676 50.0084 238.336 50.0553 236.996 50.0959L237.027 51.0954ZM245.077 50.7786C246.422 50.7139 247.763 50.6436 249.099 50.5683L249.043 49.5699C247.71 49.6451 246.371 49.7152 245.029 49.7797L245.077 50.7786ZM253.124 50.3252C254.472 50.2384 255.813 50.1467 257.144 50.0507L257.072 49.0533C255.744 49.1491 254.406 49.2406 253.059 49.3273L253.124 50.3252ZM261.158 49.7459C262.507 49.6384 263.843 49.5267 265.164 49.4115L265.077 48.4153C263.758 48.5303 262.425 48.6417 261.079 48.749L261.158 49.7459ZM269.178 49.0463C270.536 48.9176 271.875 48.7855 273.193 48.6505L273.092 47.6557C271.776 47.7904 270.439 47.9223 269.083 48.0508L269.178 49.0463ZM277.204 48.2242C278.567 48.0738 279.903 47.9209 281.209 47.7662L281.091 46.7732C279.788 46.9276 278.455 47.0802 277.094 47.2302L277.204 48.2242ZM285.209 47.2745C286.584 47.0992 287.918 46.9227 289.205 46.7458L289.069 45.7551C287.785 45.9315 286.455 46.1076 285.083 46.2825L285.209 47.2745ZM293.193 46.1753C294.59 45.9671 295.916 45.7601 297.163 45.5558L297.002 44.5689C295.759 44.7724 294.438 44.9787 293.046 45.1862L293.193 46.1753ZM301.146 44.8651C301.833 44.7381 302.485 44.613 303.098 44.4903L302.902 43.5097C302.294 43.6314 301.647 43.7555 300.964 43.8817L301.146 44.8651Z" fill="#6038F2"/>
</svg>
